# xmcd CD database file
#
# Track frame offsets:
#	150
#	26240
#	42014
#	61445
#	89579
#	108993
#	132883
#	153430
#	179061
#	204682
#	227436
#
# Disc length: 3264 seconds
#
# Revision: 0
# Processed by: cddbd v1.4PL0 Copyright (c) Steve Scherf et al.
# Submitted via: CDex 1.51
#
DISCID=960cbe0b
DTITLE=renato sellani - per lucio battisti
DYEAR=1900
DGENRE=Jazz
TTITLE0=e penso a te
TTITLE1=io vivro'
TTITLE2=un'avventura
TTITLE3=acqua azzurra acqua chiara
TTITLE4=mi ritorni in mente
TTITLE5=emozioni
TTITLE6=insieme
TTITLE7=io e te da soli
TTITLE8=amor mio
TTITLE9=il mio canto libero
TTITLE10=e penso a te 2
EXTD=
EXTT0=
EXTT1=
EXTT2=
EXTT3=
EXTT4=
EXTT5=
EXTT6=
EXTT7=
EXTT8=
EXTT9=
EXTT10=
PLAYORDER=
